<svg width="1600" height="1000" viewBox="0 0 1600 1000" fill="none" xmlns="http://www.w3.org/2000/svg">
  <defs>
    <linearGradient id="bg" x1="0" y1="0" x2="1600" y2="1000" gradientUnits="userSpaceOnUse">
      <stop stop-color="#041C2F"/>
      <stop offset="1" stop-color="#0D3A4A"/>
    </linearGradient>
    <linearGradient id="panel" x1="280" y1="180" x2="1330" y2="850" gradientUnits="userSpaceOnUse">
      <stop stop-color="#22D3EE" stop-opacity="0.35"/>
      <stop offset="1" stop-color="#FB923C" stop-opacity="0.35"/>
    </linearGradient>
  </defs>
  <rect width="1600" height="1000" fill="url(#bg)"/>
  <circle cx="1330" cy="210" r="220" fill="#FB923C" fill-opacity="0.18"/>
  <circle cx="240" cy="820" r="260" fill="#67E8F9" fill-opacity="0.16"/>
  <rect x="140" y="120" width="1320" height="760" rx="34" fill="#031523" stroke="#67E8F9" stroke-opacity="0.28"/>
  <rect x="190" y="190" width="540" height="300" rx="20" fill="#0E293F"/>
  <rect x="190" y="530" width="540" height="300" rx="20" fill="#0E293F"/>
  <rect x="770" y="190" width="640" height="640" rx="24" fill="url(#panel)" stroke="#FDBA74" stroke-opacity="0.45"/>
  <rect x="230" y="240" width="460" height="40" rx="10" fill="#0EA5B7" fill-opacity="0.35"/>
  <rect x="230" y="300" width="280" height="20" rx="8" fill="#BAE6FD" fill-opacity="0.4"/>
  <rect x="230" y="340" width="340" height="20" rx="8" fill="#BAE6FD" fill-opacity="0.25"/>
  <rect x="230" y="580" width="420" height="34" rx="10" fill="#F97316" fill-opacity="0.34"/>
  <rect x="230" y="632" width="300" height="18" rx="9" fill="#FED7AA" fill-opacity="0.45"/>
  <rect x="230" y="666" width="360" height="18" rx="9" fill="#FED7AA" fill-opacity="0.32"/>
  <path d="M860 690C930 600 1010 660 1080 550C1150 440 1220 500 1320 360" stroke="#67E8F9" stroke-width="14" stroke-linecap="round"/>
  <circle cx="1320" cy="360" r="18" fill="#67E8F9"/>
  <text x="220" y="160" fill="#E0F2FE" font-size="34" font-family="Arial, sans-serif">ChainPilot Dashboard</text>
</svg>
