<svg width="1600" height="1000" viewBox="0 0 1600 1000" fill="none" xmlns="http://www.w3.org/2000/svg">
  <defs>
    <linearGradient id="bg" x1="0" y1="0" x2="1600" y2="1000" gradientUnits="userSpaceOnUse">
      <stop stop-color="#0F172A"/>
      <stop offset="1" stop-color="#1E293B"/>
    </linearGradient>
    <linearGradient id="mobile" x1="400" y1="200" x2="1200" y2="800" gradientUnits="userSpaceOnUse">
      <stop stop-color="#22D3EE" stop-opacity="0.35"/>
      <stop offset="1" stop-color="#FB923C" stop-opacity="0.35"/>
    </linearGradient>
  </defs>
  <rect width="1600" height="1000" fill="url(#bg)"/>
  <circle cx="1300" cy="200" r="180" fill="#22D3EE" fill-opacity="0.18"/>
  <circle cx="300" cy="800" r="220" fill="#FB923C" fill-opacity="0.16"/>
  <rect x="140" y="120" width="1320" height="760" rx="34" fill="#0F172A" stroke="#22D3EE" stroke-opacity="0.28"/>
  <!-- Mobile Phone Mockup -->
  <rect x="200" y="200" width="320" height="600" rx="40" fill="#1E293B" stroke="#22D3EE" stroke-opacity="0.4"/>
  <rect x="220" y="230" width="280" height="540" rx="30" fill="url(#mobile)"/>
  <!-- POS Interface Elements -->
  <rect x="250" y="280" width="220" height="60" rx="12" fill="#0EA5B7" fill-opacity="0.4"/>
  <rect x="250" y="360" width="180" height="30" rx="8" fill="#BAE6FD" fill-opacity="0.5"/>
  <rect x="250" y="410" width="200" height="30" rx="8" fill="#BAE6FD" fill-opacity="0.3"/>
  <!-- Product Grid -->
  <rect x="250" y="480" width="60" height="60" rx="8" fill="#FB923C" fill-opacity="0.4"/>
  <rect x="330" y="480" width="60" height="60" rx="8" fill="#22D3EE" fill-opacity="0.4"/>
  <rect x="410" y="480" width="60" height="60" rx="8" fill="#67E8F9" fill-opacity="0.4"/>
  <!-- Analytics Panel -->
  <rect x="600" y="200" width="700" height="600" rx="24" fill="#1E293B" stroke="#FB923C" stroke-opacity="0.3"/>
  <rect x="650" y="250" width="600" height="80" rx="16" fill="#0EA5B7" fill-opacity="0.3"/>
  <rect x="650" y="360" width="280" height="40" rx="10" fill="#BAE6FD" fill-opacity="0.4"/>
  <rect x="650" y="420" width="320" height="40" rx="10" fill="#BAE6FD" fill-opacity="0.25"/>
  <!-- Chart Lines -->
  <path d="M650 520 L750 480 L850 520 L950 460 L1050 500 L1150 450 L1250 480" stroke="#22D3EE" stroke-width="8" stroke-linecap="round" fill="none"/>
  <circle cx="1250" cy="480" r="12" fill="#22D3EE"/>
  <text x="220" y="160" fill="#E0F2FE" font-size="34" font-family="Arial, sans-serif">ShopFlow Mobile POS</text>
</svg>